%TF.GenerationSoftware,KiCad,Pcbnew,(6.0.7)*%
%TF.CreationDate,2022-10-11T21:25:08+02:00*%
%TF.ProjectId,Taupunktlueftung,54617570-756e-46b7-946c-75656674756e,rev?*%
%TF.SameCoordinates,Original*%
%TF.FileFunction,Legend,Top*%
%TF.FilePolarity,Positive*%
%FSLAX46Y46*%
G04 Gerber Fmt 4.6, Leading zero omitted, Abs format (unit mm)*
G04 Created by KiCad (PCBNEW (6.0.7)) date 2022-10-11 21:25:08*
%MOMM*%
%LPD*%
G01*
G04 APERTURE LIST*
%ADD10C,0.300000*%
%ADD11C,0.150000*%
%ADD12C,0.120000*%
G04 APERTURE END LIST*
D10*
X127607142Y-88400000D02*
X127607142Y-87257142D01*
X126678571Y-84685714D02*
X126678571Y-85400000D01*
X127392857Y-85471428D01*
X127321428Y-85400000D01*
X127250000Y-85257142D01*
X127250000Y-84900000D01*
X127321428Y-84757142D01*
X127392857Y-84685714D01*
X127535714Y-84614285D01*
X127892857Y-84614285D01*
X128035714Y-84685714D01*
X128107142Y-84757142D01*
X128178571Y-84900000D01*
X128178571Y-85257142D01*
X128107142Y-85400000D01*
X128035714Y-85471428D01*
X126678571Y-84185714D02*
X128178571Y-83685714D01*
X126678571Y-83185714D01*
X127607142Y-81542857D02*
X127607142Y-80400000D01*
X128178571Y-80971428D02*
X127035714Y-80971428D01*
X39778571Y-126292857D02*
X41278571Y-126292857D01*
X40564285Y-125578571D02*
X40707142Y-125507142D01*
X40778571Y-125364285D01*
X40564285Y-126292857D02*
X40707142Y-126221428D01*
X40778571Y-126078571D01*
X40778571Y-125792857D01*
X40707142Y-125650000D01*
X40564285Y-125578571D01*
X39778571Y-125578571D01*
X40707142Y-124792857D02*
X40778571Y-124578571D01*
X40778571Y-124221428D01*
X40707142Y-124078571D01*
X40635714Y-124007142D01*
X40492857Y-123935714D01*
X40350000Y-123935714D01*
X40207142Y-124007142D01*
X40135714Y-124078571D01*
X40064285Y-124221428D01*
X39992857Y-124507142D01*
X39921428Y-124650000D01*
X39850000Y-124721428D01*
X39707142Y-124792857D01*
X39564285Y-124792857D01*
X39421428Y-124721428D01*
X39350000Y-124650000D01*
X39278571Y-124507142D01*
X39278571Y-124150000D01*
X39350000Y-123935714D01*
X40778571Y-123292857D02*
X39278571Y-123292857D01*
X39278571Y-122935714D01*
X39350000Y-122721428D01*
X39492857Y-122578571D01*
X39635714Y-122507142D01*
X39921428Y-122435714D01*
X40135714Y-122435714D01*
X40421428Y-122507142D01*
X40564285Y-122578571D01*
X40707142Y-122721428D01*
X40778571Y-122935714D01*
X40778571Y-123292857D01*
X128007142Y-75142857D02*
X128007142Y-74000000D01*
X128578571Y-74571428D02*
X127435714Y-74571428D01*
X128507142Y-72214285D02*
X128578571Y-72000000D01*
X128578571Y-71642857D01*
X128507142Y-71500000D01*
X128435714Y-71428571D01*
X128292857Y-71357142D01*
X128150000Y-71357142D01*
X128007142Y-71428571D01*
X127935714Y-71500000D01*
X127864285Y-71642857D01*
X127792857Y-71928571D01*
X127721428Y-72071428D01*
X127650000Y-72142857D01*
X127507142Y-72214285D01*
X127364285Y-72214285D01*
X127221428Y-72142857D01*
X127150000Y-72071428D01*
X127078571Y-71928571D01*
X127078571Y-71571428D01*
X127150000Y-71357142D01*
X128507142Y-70142857D02*
X128578571Y-70285714D01*
X128578571Y-70571428D01*
X128507142Y-70714285D01*
X128364285Y-70785714D01*
X127792857Y-70785714D01*
X127650000Y-70714285D01*
X127578571Y-70571428D01*
X127578571Y-70285714D01*
X127650000Y-70142857D01*
X127792857Y-70071428D01*
X127935714Y-70071428D01*
X128078571Y-70785714D01*
X127578571Y-69428571D02*
X128578571Y-69428571D01*
X127721428Y-69428571D02*
X127650000Y-69357142D01*
X127578571Y-69214285D01*
X127578571Y-69000000D01*
X127650000Y-68857142D01*
X127792857Y-68785714D01*
X128578571Y-68785714D01*
X128507142Y-68142857D02*
X128578571Y-68000000D01*
X128578571Y-67714285D01*
X128507142Y-67571428D01*
X128364285Y-67500000D01*
X128292857Y-67500000D01*
X128150000Y-67571428D01*
X128078571Y-67714285D01*
X128078571Y-67928571D01*
X128007142Y-68071428D01*
X127864285Y-68142857D01*
X127792857Y-68142857D01*
X127650000Y-68071428D01*
X127578571Y-67928571D01*
X127578571Y-67714285D01*
X127650000Y-67571428D01*
X128578571Y-66857142D02*
X127078571Y-66857142D01*
X128007142Y-65000000D02*
X128007142Y-63857142D01*
X126978571Y-146814285D02*
X126978571Y-145957142D01*
X128478571Y-146385714D02*
X126978571Y-146385714D01*
X128478571Y-144671428D02*
X128478571Y-145528571D01*
X128478571Y-145100000D02*
X126978571Y-145100000D01*
X127192857Y-145242857D01*
X127335714Y-145385714D01*
X127407142Y-145528571D01*
X128978571Y-141385714D02*
X126835714Y-141385714D01*
X126978571Y-137100000D02*
X126978571Y-136242857D01*
X128478571Y-136671428D02*
X126978571Y-136671428D01*
X127121428Y-135814285D02*
X127050000Y-135742857D01*
X126978571Y-135600000D01*
X126978571Y-135242857D01*
X127050000Y-135100000D01*
X127121428Y-135028571D01*
X127264285Y-134957142D01*
X127407142Y-134957142D01*
X127621428Y-135028571D01*
X128478571Y-135885714D01*
X128478571Y-134957142D01*
X128978571Y-131671428D02*
X126835714Y-131671428D01*
X126978571Y-127385714D02*
X126978571Y-126528571D01*
X128478571Y-126957142D02*
X126978571Y-126957142D01*
X126978571Y-126171428D02*
X126978571Y-125242857D01*
X127550000Y-125742857D01*
X127550000Y-125528571D01*
X127621428Y-125385714D01*
X127692857Y-125314285D01*
X127835714Y-125242857D01*
X128192857Y-125242857D01*
X128335714Y-125314285D01*
X128407142Y-125385714D01*
X128478571Y-125528571D01*
X128478571Y-125957142D01*
X128407142Y-126100000D01*
X128335714Y-126171428D01*
X128978571Y-121957142D02*
X126835714Y-121957142D01*
X126978571Y-117671428D02*
X126978571Y-116814285D01*
X128478571Y-117242857D02*
X126978571Y-117242857D01*
X127478571Y-115671428D02*
X128478571Y-115671428D01*
X126907142Y-116028571D02*
X127978571Y-116385714D01*
X127978571Y-115457142D01*
X92078571Y-98514285D02*
X91364285Y-99014285D01*
X92078571Y-99371428D02*
X90578571Y-99371428D01*
X90578571Y-98800000D01*
X90650000Y-98657142D01*
X90721428Y-98585714D01*
X90864285Y-98514285D01*
X91078571Y-98514285D01*
X91221428Y-98585714D01*
X91292857Y-98657142D01*
X91364285Y-98800000D01*
X91364285Y-99371428D01*
X92007142Y-97300000D02*
X92078571Y-97442857D01*
X92078571Y-97728571D01*
X92007142Y-97871428D01*
X91864285Y-97942857D01*
X91292857Y-97942857D01*
X91150000Y-97871428D01*
X91078571Y-97728571D01*
X91078571Y-97442857D01*
X91150000Y-97300000D01*
X91292857Y-97228571D01*
X91435714Y-97228571D01*
X91578571Y-97942857D01*
X92078571Y-96371428D02*
X92007142Y-96514285D01*
X91864285Y-96585714D01*
X90578571Y-96585714D01*
X92078571Y-95157142D02*
X91292857Y-95157142D01*
X91150000Y-95228571D01*
X91078571Y-95371428D01*
X91078571Y-95657142D01*
X91150000Y-95800000D01*
X92007142Y-95157142D02*
X92078571Y-95300000D01*
X92078571Y-95657142D01*
X92007142Y-95800000D01*
X91864285Y-95871428D01*
X91721428Y-95871428D01*
X91578571Y-95800000D01*
X91507142Y-95657142D01*
X91507142Y-95300000D01*
X91435714Y-95157142D01*
X92078571Y-94442857D02*
X91078571Y-94442857D01*
X90578571Y-94442857D02*
X90650000Y-94514285D01*
X90721428Y-94442857D01*
X90650000Y-94371428D01*
X90578571Y-94442857D01*
X90721428Y-94442857D01*
X92007142Y-93800000D02*
X92078571Y-93657142D01*
X92078571Y-93371428D01*
X92007142Y-93228571D01*
X91864285Y-93157142D01*
X91792857Y-93157142D01*
X91650000Y-93228571D01*
X91578571Y-93371428D01*
X91578571Y-93585714D01*
X91507142Y-93728571D01*
X91364285Y-93800000D01*
X91292857Y-93800000D01*
X91150000Y-93728571D01*
X91078571Y-93585714D01*
X91078571Y-93371428D01*
X91150000Y-93228571D01*
X102578571Y-135057142D02*
X102578571Y-134200000D01*
X104078571Y-134628571D02*
X102578571Y-134628571D01*
X104078571Y-132914285D02*
X104078571Y-133771428D01*
X104078571Y-133342857D02*
X102578571Y-133342857D01*
X102792857Y-133485714D01*
X102935714Y-133628571D01*
X103007142Y-133771428D01*
X102578571Y-131342857D02*
X102578571Y-130485714D01*
X104078571Y-130914285D02*
X102578571Y-130914285D01*
X102721428Y-130057142D02*
X102650000Y-129985714D01*
X102578571Y-129842857D01*
X102578571Y-129485714D01*
X102650000Y-129342857D01*
X102721428Y-129271428D01*
X102864285Y-129200000D01*
X103007142Y-129200000D01*
X103221428Y-129271428D01*
X104078571Y-130128571D01*
X104078571Y-129200000D01*
X102578571Y-126485714D02*
X102578571Y-125628571D01*
X104078571Y-126057142D02*
X102578571Y-126057142D01*
X102578571Y-125271428D02*
X102578571Y-124342857D01*
X103150000Y-124842857D01*
X103150000Y-124628571D01*
X103221428Y-124485714D01*
X103292857Y-124414285D01*
X103435714Y-124342857D01*
X103792857Y-124342857D01*
X103935714Y-124414285D01*
X104007142Y-124485714D01*
X104078571Y-124628571D01*
X104078571Y-125057142D01*
X104007142Y-125200000D01*
X103935714Y-125271428D01*
X102578571Y-121628571D02*
X102578571Y-120771428D01*
X104078571Y-121200000D02*
X102578571Y-121200000D01*
X103078571Y-119628571D02*
X104078571Y-119628571D01*
X102507142Y-119985714D02*
X103578571Y-120342857D01*
X103578571Y-119414285D01*
X53342857Y-47278571D02*
X52842857Y-46564285D01*
X52485714Y-47278571D02*
X52485714Y-45778571D01*
X53057142Y-45778571D01*
X53200000Y-45850000D01*
X53271428Y-45921428D01*
X53342857Y-46064285D01*
X53342857Y-46278571D01*
X53271428Y-46421428D01*
X53200000Y-46492857D01*
X53057142Y-46564285D01*
X52485714Y-46564285D01*
X53771428Y-45778571D02*
X54628571Y-45778571D01*
X54200000Y-47278571D02*
X54200000Y-45778571D01*
X55985714Y-47135714D02*
X55914285Y-47207142D01*
X55700000Y-47278571D01*
X55557142Y-47278571D01*
X55342857Y-47207142D01*
X55200000Y-47064285D01*
X55128571Y-46921428D01*
X55057142Y-46635714D01*
X55057142Y-46421428D01*
X55128571Y-46135714D01*
X55200000Y-45992857D01*
X55342857Y-45850000D01*
X55557142Y-45778571D01*
X55700000Y-45778571D01*
X55914285Y-45850000D01*
X55985714Y-45921428D01*
X127407142Y-58128571D02*
X127407142Y-56985714D01*
X127978571Y-57557142D02*
X126835714Y-57557142D01*
X127907142Y-55200000D02*
X127978571Y-54985714D01*
X127978571Y-54628571D01*
X127907142Y-54485714D01*
X127835714Y-54414285D01*
X127692857Y-54342857D01*
X127550000Y-54342857D01*
X127407142Y-54414285D01*
X127335714Y-54485714D01*
X127264285Y-54628571D01*
X127192857Y-54914285D01*
X127121428Y-55057142D01*
X127050000Y-55128571D01*
X126907142Y-55200000D01*
X126764285Y-55200000D01*
X126621428Y-55128571D01*
X126550000Y-55057142D01*
X126478571Y-54914285D01*
X126478571Y-54557142D01*
X126550000Y-54342857D01*
X127907142Y-53128571D02*
X127978571Y-53271428D01*
X127978571Y-53557142D01*
X127907142Y-53700000D01*
X127764285Y-53771428D01*
X127192857Y-53771428D01*
X127050000Y-53700000D01*
X126978571Y-53557142D01*
X126978571Y-53271428D01*
X127050000Y-53128571D01*
X127192857Y-53057142D01*
X127335714Y-53057142D01*
X127478571Y-53771428D01*
X126978571Y-52414285D02*
X127978571Y-52414285D01*
X127121428Y-52414285D02*
X127050000Y-52342857D01*
X126978571Y-52200000D01*
X126978571Y-51985714D01*
X127050000Y-51842857D01*
X127192857Y-51771428D01*
X127978571Y-51771428D01*
X127907142Y-51128571D02*
X127978571Y-50985714D01*
X127978571Y-50700000D01*
X127907142Y-50557142D01*
X127764285Y-50485714D01*
X127692857Y-50485714D01*
X127550000Y-50557142D01*
X127478571Y-50700000D01*
X127478571Y-50914285D01*
X127407142Y-51057142D01*
X127264285Y-51128571D01*
X127192857Y-51128571D01*
X127050000Y-51057142D01*
X126978571Y-50914285D01*
X126978571Y-50700000D01*
X127050000Y-50557142D01*
X127550000Y-49914285D02*
X127550000Y-49200000D01*
X127978571Y-50057142D02*
X126478571Y-49557142D01*
X127978571Y-49057142D01*
X127407142Y-47414285D02*
X127407142Y-46271428D01*
D11*
%TO.C,U1*%
X77202380Y-58611904D02*
X78011904Y-58611904D01*
X78107142Y-58564285D01*
X78154761Y-58516666D01*
X78202380Y-58421428D01*
X78202380Y-58230952D01*
X78154761Y-58135714D01*
X78107142Y-58088095D01*
X78011904Y-58040476D01*
X77202380Y-58040476D01*
X78202380Y-57040476D02*
X78202380Y-57611904D01*
X78202380Y-57326190D02*
X77202380Y-57326190D01*
X77345238Y-57421428D01*
X77440476Y-57516666D01*
X77488095Y-57611904D01*
%TO.C,RLY1*%
X117902380Y-112000000D02*
X117426190Y-112333333D01*
X117902380Y-112571428D02*
X116902380Y-112571428D01*
X116902380Y-112190476D01*
X116950000Y-112095238D01*
X116997619Y-112047619D01*
X117092857Y-112000000D01*
X117235714Y-112000000D01*
X117330952Y-112047619D01*
X117378571Y-112095238D01*
X117426190Y-112190476D01*
X117426190Y-112571428D01*
X117902380Y-111095238D02*
X117902380Y-111571428D01*
X116902380Y-111571428D01*
X117426190Y-110571428D02*
X117902380Y-110571428D01*
X116902380Y-110904761D02*
X117426190Y-110571428D01*
X116902380Y-110238095D01*
X117902380Y-109380952D02*
X117902380Y-109952380D01*
X117902380Y-109666666D02*
X116902380Y-109666666D01*
X117045238Y-109761904D01*
X117140476Y-109857142D01*
X117188095Y-109952380D01*
%TO.C,J2*%
X39077380Y-110958333D02*
X39791666Y-110958333D01*
X39934523Y-111005952D01*
X40029761Y-111101190D01*
X40077380Y-111244047D01*
X40077380Y-111339285D01*
X39172619Y-110529761D02*
X39125000Y-110482142D01*
X39077380Y-110386904D01*
X39077380Y-110148809D01*
X39125000Y-110053571D01*
X39172619Y-110005952D01*
X39267857Y-109958333D01*
X39363095Y-109958333D01*
X39505952Y-110005952D01*
X40077380Y-110577380D01*
X40077380Y-109958333D01*
%TO.C,R1*%
X62033333Y-99132380D02*
X61700000Y-98656190D01*
X61461904Y-99132380D02*
X61461904Y-98132380D01*
X61842857Y-98132380D01*
X61938095Y-98180000D01*
X61985714Y-98227619D01*
X62033333Y-98322857D01*
X62033333Y-98465714D01*
X61985714Y-98560952D01*
X61938095Y-98608571D01*
X61842857Y-98656190D01*
X61461904Y-98656190D01*
X62985714Y-99132380D02*
X62414285Y-99132380D01*
X62700000Y-99132380D02*
X62700000Y-98132380D01*
X62604761Y-98275238D01*
X62509523Y-98370476D01*
X62414285Y-98418095D01*
%TO.C,R4*%
X115852380Y-60966666D02*
X115376190Y-61300000D01*
X115852380Y-61538095D02*
X114852380Y-61538095D01*
X114852380Y-61157142D01*
X114900000Y-61061904D01*
X114947619Y-61014285D01*
X115042857Y-60966666D01*
X115185714Y-60966666D01*
X115280952Y-61014285D01*
X115328571Y-61061904D01*
X115376190Y-61157142D01*
X115376190Y-61538095D01*
X115185714Y-60109523D02*
X115852380Y-60109523D01*
X114804761Y-60347619D02*
X115519047Y-60585714D01*
X115519047Y-59966666D01*
%TO.C,J4*%
X54566666Y-98112380D02*
X54566666Y-98826666D01*
X54519047Y-98969523D01*
X54423809Y-99064761D01*
X54280952Y-99112380D01*
X54185714Y-99112380D01*
X55471428Y-98445714D02*
X55471428Y-99112380D01*
X55233333Y-98064761D02*
X54995238Y-98779047D01*
X55614285Y-98779047D01*
%TO.C,C2*%
X74882142Y-117741666D02*
X74929761Y-117789285D01*
X74977380Y-117932142D01*
X74977380Y-118027380D01*
X74929761Y-118170238D01*
X74834523Y-118265476D01*
X74739285Y-118313095D01*
X74548809Y-118360714D01*
X74405952Y-118360714D01*
X74215476Y-118313095D01*
X74120238Y-118265476D01*
X74025000Y-118170238D01*
X73977380Y-118027380D01*
X73977380Y-117932142D01*
X74025000Y-117789285D01*
X74072619Y-117741666D01*
X74072619Y-117360714D02*
X74025000Y-117313095D01*
X73977380Y-117217857D01*
X73977380Y-116979761D01*
X74025000Y-116884523D01*
X74072619Y-116836904D01*
X74167857Y-116789285D01*
X74263095Y-116789285D01*
X74405952Y-116836904D01*
X74977380Y-117408333D01*
X74977380Y-116789285D01*
%TO.C,R7*%
X88433333Y-143155712D02*
X88100000Y-142679522D01*
X87861904Y-143155712D02*
X87861904Y-142155712D01*
X88242857Y-142155712D01*
X88338095Y-142203332D01*
X88385714Y-142250951D01*
X88433333Y-142346189D01*
X88433333Y-142489046D01*
X88385714Y-142584284D01*
X88338095Y-142631903D01*
X88242857Y-142679522D01*
X87861904Y-142679522D01*
X88766666Y-142155712D02*
X89433333Y-142155712D01*
X89004761Y-143155712D01*
%TO.C,R9*%
X89197380Y-63841666D02*
X88721190Y-64175000D01*
X89197380Y-64413095D02*
X88197380Y-64413095D01*
X88197380Y-64032142D01*
X88245000Y-63936904D01*
X88292619Y-63889285D01*
X88387857Y-63841666D01*
X88530714Y-63841666D01*
X88625952Y-63889285D01*
X88673571Y-63936904D01*
X88721190Y-64032142D01*
X88721190Y-64413095D01*
X89197380Y-63365476D02*
X89197380Y-63175000D01*
X89149761Y-63079761D01*
X89102142Y-63032142D01*
X88959285Y-62936904D01*
X88768809Y-62889285D01*
X88387857Y-62889285D01*
X88292619Y-62936904D01*
X88245000Y-62984523D01*
X88197380Y-63079761D01*
X88197380Y-63270238D01*
X88245000Y-63365476D01*
X88292619Y-63413095D01*
X88387857Y-63460714D01*
X88625952Y-63460714D01*
X88721190Y-63413095D01*
X88768809Y-63365476D01*
X88816428Y-63270238D01*
X88816428Y-63079761D01*
X88768809Y-62984523D01*
X88721190Y-62936904D01*
X88625952Y-62889285D01*
%TO.C,R2*%
X108707380Y-58766666D02*
X108231190Y-59100000D01*
X108707380Y-59338095D02*
X107707380Y-59338095D01*
X107707380Y-58957142D01*
X107755000Y-58861904D01*
X107802619Y-58814285D01*
X107897857Y-58766666D01*
X108040714Y-58766666D01*
X108135952Y-58814285D01*
X108183571Y-58861904D01*
X108231190Y-58957142D01*
X108231190Y-59338095D01*
X107802619Y-58385714D02*
X107755000Y-58338095D01*
X107707380Y-58242857D01*
X107707380Y-58004761D01*
X107755000Y-57909523D01*
X107802619Y-57861904D01*
X107897857Y-57814285D01*
X107993095Y-57814285D01*
X108135952Y-57861904D01*
X108707380Y-58433333D01*
X108707380Y-57814285D01*
%TO.C,D1*%
X43291904Y-92612380D02*
X43291904Y-91612380D01*
X43530000Y-91612380D01*
X43672857Y-91660000D01*
X43768095Y-91755238D01*
X43815714Y-91850476D01*
X43863333Y-92040952D01*
X43863333Y-92183809D01*
X43815714Y-92374285D01*
X43768095Y-92469523D01*
X43672857Y-92564761D01*
X43530000Y-92612380D01*
X43291904Y-92612380D01*
X44815714Y-92612380D02*
X44244285Y-92612380D01*
X44530000Y-92612380D02*
X44530000Y-91612380D01*
X44434761Y-91755238D01*
X44339523Y-91850476D01*
X44244285Y-91898095D01*
%TO.C,R8*%
X88433333Y-149347380D02*
X88100000Y-148871190D01*
X87861904Y-149347380D02*
X87861904Y-148347380D01*
X88242857Y-148347380D01*
X88338095Y-148395000D01*
X88385714Y-148442619D01*
X88433333Y-148537857D01*
X88433333Y-148680714D01*
X88385714Y-148775952D01*
X88338095Y-148823571D01*
X88242857Y-148871190D01*
X87861904Y-148871190D01*
X89004761Y-148775952D02*
X88909523Y-148728333D01*
X88861904Y-148680714D01*
X88814285Y-148585476D01*
X88814285Y-148537857D01*
X88861904Y-148442619D01*
X88909523Y-148395000D01*
X89004761Y-148347380D01*
X89195238Y-148347380D01*
X89290476Y-148395000D01*
X89338095Y-148442619D01*
X89385714Y-148537857D01*
X89385714Y-148585476D01*
X89338095Y-148680714D01*
X89290476Y-148728333D01*
X89195238Y-148775952D01*
X89004761Y-148775952D01*
X88909523Y-148823571D01*
X88861904Y-148871190D01*
X88814285Y-148966428D01*
X88814285Y-149156904D01*
X88861904Y-149252142D01*
X88909523Y-149299761D01*
X89004761Y-149347380D01*
X89195238Y-149347380D01*
X89290476Y-149299761D01*
X89338095Y-149252142D01*
X89385714Y-149156904D01*
X89385714Y-148966428D01*
X89338095Y-148871190D01*
X89290476Y-148823571D01*
X89195238Y-148775952D01*
%TO.C,C1*%
X114882142Y-78766666D02*
X114929761Y-78814285D01*
X114977380Y-78957142D01*
X114977380Y-79052380D01*
X114929761Y-79195238D01*
X114834523Y-79290476D01*
X114739285Y-79338095D01*
X114548809Y-79385714D01*
X114405952Y-79385714D01*
X114215476Y-79338095D01*
X114120238Y-79290476D01*
X114025000Y-79195238D01*
X113977380Y-79052380D01*
X113977380Y-78957142D01*
X114025000Y-78814285D01*
X114072619Y-78766666D01*
X114977380Y-77814285D02*
X114977380Y-78385714D01*
X114977380Y-78100000D02*
X113977380Y-78100000D01*
X114120238Y-78195238D01*
X114215476Y-78290476D01*
X114263095Y-78385714D01*
%TO.C,J8*%
X97666666Y-61797380D02*
X97666666Y-62511666D01*
X97619047Y-62654523D01*
X97523809Y-62749761D01*
X97380952Y-62797380D01*
X97285714Y-62797380D01*
X98285714Y-62225952D02*
X98190476Y-62178333D01*
X98142857Y-62130714D01*
X98095238Y-62035476D01*
X98095238Y-61987857D01*
X98142857Y-61892619D01*
X98190476Y-61845000D01*
X98285714Y-61797380D01*
X98476190Y-61797380D01*
X98571428Y-61845000D01*
X98619047Y-61892619D01*
X98666666Y-61987857D01*
X98666666Y-62035476D01*
X98619047Y-62130714D01*
X98571428Y-62178333D01*
X98476190Y-62225952D01*
X98285714Y-62225952D01*
X98190476Y-62273571D01*
X98142857Y-62321190D01*
X98095238Y-62416428D01*
X98095238Y-62606904D01*
X98142857Y-62702142D01*
X98190476Y-62749761D01*
X98285714Y-62797380D01*
X98476190Y-62797380D01*
X98571428Y-62749761D01*
X98619047Y-62702142D01*
X98666666Y-62606904D01*
X98666666Y-62416428D01*
X98619047Y-62321190D01*
X98571428Y-62273571D01*
X98476190Y-62225952D01*
%TO.C,J5*%
X93382380Y-118183333D02*
X94096666Y-118183333D01*
X94239523Y-118230952D01*
X94334761Y-118326190D01*
X94382380Y-118469047D01*
X94382380Y-118564285D01*
X93382380Y-117230952D02*
X93382380Y-117707142D01*
X93858571Y-117754761D01*
X93810952Y-117707142D01*
X93763333Y-117611904D01*
X93763333Y-117373809D01*
X93810952Y-117278571D01*
X93858571Y-117230952D01*
X93953809Y-117183333D01*
X94191904Y-117183333D01*
X94287142Y-117230952D01*
X94334761Y-117278571D01*
X94382380Y-117373809D01*
X94382380Y-117611904D01*
X94334761Y-117707142D01*
X94287142Y-117754761D01*
%TO.C,J6*%
X116592380Y-52333333D02*
X117306666Y-52333333D01*
X117449523Y-52380952D01*
X117544761Y-52476190D01*
X117592380Y-52619047D01*
X117592380Y-52714285D01*
X116592380Y-51428571D02*
X116592380Y-51619047D01*
X116640000Y-51714285D01*
X116687619Y-51761904D01*
X116830476Y-51857142D01*
X117020952Y-51904761D01*
X117401904Y-51904761D01*
X117497142Y-51857142D01*
X117544761Y-51809523D01*
X117592380Y-51714285D01*
X117592380Y-51523809D01*
X117544761Y-51428571D01*
X117497142Y-51380952D01*
X117401904Y-51333333D01*
X117163809Y-51333333D01*
X117068571Y-51380952D01*
X117020952Y-51428571D01*
X116973333Y-51523809D01*
X116973333Y-51714285D01*
X117020952Y-51809523D01*
X117068571Y-51857142D01*
X117163809Y-51904761D01*
%TO.C,J1*%
X116592380Y-84833333D02*
X117306666Y-84833333D01*
X117449523Y-84880952D01*
X117544761Y-84976190D01*
X117592380Y-85119047D01*
X117592380Y-85214285D01*
X117592380Y-83833333D02*
X117592380Y-84404761D01*
X117592380Y-84119047D02*
X116592380Y-84119047D01*
X116735238Y-84214285D01*
X116830476Y-84309523D01*
X116878095Y-84404761D01*
%TO.C,J7*%
X116252380Y-74633333D02*
X116966666Y-74633333D01*
X117109523Y-74680952D01*
X117204761Y-74776190D01*
X117252380Y-74919047D01*
X117252380Y-75014285D01*
X116252380Y-74252380D02*
X116252380Y-73585714D01*
X117252380Y-74014285D01*
%TO.C,J9*%
X116592380Y-131933333D02*
X117306666Y-131933333D01*
X117449523Y-131980952D01*
X117544761Y-132076190D01*
X117592380Y-132219047D01*
X117592380Y-132314285D01*
X117592380Y-131409523D02*
X117592380Y-131219047D01*
X117544761Y-131123809D01*
X117497142Y-131076190D01*
X117354285Y-130980952D01*
X117163809Y-130933333D01*
X116782857Y-130933333D01*
X116687619Y-130980952D01*
X116640000Y-131028571D01*
X116592380Y-131123809D01*
X116592380Y-131314285D01*
X116640000Y-131409523D01*
X116687619Y-131457142D01*
X116782857Y-131504761D01*
X117020952Y-131504761D01*
X117116190Y-131457142D01*
X117163809Y-131409523D01*
X117211428Y-131314285D01*
X117211428Y-131123809D01*
X117163809Y-131028571D01*
X117116190Y-130980952D01*
X117020952Y-130933333D01*
%TO.C,R3*%
X44182380Y-102741666D02*
X43706190Y-103075000D01*
X44182380Y-103313095D02*
X43182380Y-103313095D01*
X43182380Y-102932142D01*
X43230000Y-102836904D01*
X43277619Y-102789285D01*
X43372857Y-102741666D01*
X43515714Y-102741666D01*
X43610952Y-102789285D01*
X43658571Y-102836904D01*
X43706190Y-102932142D01*
X43706190Y-103313095D01*
X43182380Y-102408333D02*
X43182380Y-101789285D01*
X43563333Y-102122619D01*
X43563333Y-101979761D01*
X43610952Y-101884523D01*
X43658571Y-101836904D01*
X43753809Y-101789285D01*
X43991904Y-101789285D01*
X44087142Y-101836904D01*
X44134761Y-101884523D01*
X44182380Y-101979761D01*
X44182380Y-102265476D01*
X44134761Y-102360714D01*
X44087142Y-102408333D01*
%TO.C,J3*%
X74066666Y-99362380D02*
X74066666Y-100076666D01*
X74019047Y-100219523D01*
X73923809Y-100314761D01*
X73780952Y-100362380D01*
X73685714Y-100362380D01*
X74447619Y-99362380D02*
X75066666Y-99362380D01*
X74733333Y-99743333D01*
X74876190Y-99743333D01*
X74971428Y-99790952D01*
X75019047Y-99838571D01*
X75066666Y-99933809D01*
X75066666Y-100171904D01*
X75019047Y-100267142D01*
X74971428Y-100314761D01*
X74876190Y-100362380D01*
X74590476Y-100362380D01*
X74495238Y-100314761D01*
X74447619Y-100267142D01*
%TO.C,R10*%
X89057142Y-81052380D02*
X88723809Y-80576190D01*
X88485714Y-81052380D02*
X88485714Y-80052380D01*
X88866666Y-80052380D01*
X88961904Y-80100000D01*
X89009523Y-80147619D01*
X89057142Y-80242857D01*
X89057142Y-80385714D01*
X89009523Y-80480952D01*
X88961904Y-80528571D01*
X88866666Y-80576190D01*
X88485714Y-80576190D01*
X90009523Y-81052380D02*
X89438095Y-81052380D01*
X89723809Y-81052380D02*
X89723809Y-80052380D01*
X89628571Y-80195238D01*
X89533333Y-80290476D01*
X89438095Y-80338095D01*
X90628571Y-80052380D02*
X90723809Y-80052380D01*
X90819047Y-80100000D01*
X90866666Y-80147619D01*
X90914285Y-80242857D01*
X90961904Y-80433333D01*
X90961904Y-80671428D01*
X90914285Y-80861904D01*
X90866666Y-80957142D01*
X90819047Y-81004761D01*
X90723809Y-81052380D01*
X90628571Y-81052380D01*
X90533333Y-81004761D01*
X90485714Y-80957142D01*
X90438095Y-80861904D01*
X90390476Y-80671428D01*
X90390476Y-80433333D01*
X90438095Y-80242857D01*
X90485714Y-80147619D01*
X90533333Y-80100000D01*
X90628571Y-80052380D01*
%TO.C,A1*%
X60980714Y-106761666D02*
X61456904Y-106761666D01*
X60885476Y-107047380D02*
X61218809Y-106047380D01*
X61552142Y-107047380D01*
X62409285Y-107047380D02*
X61837857Y-107047380D01*
X62123571Y-107047380D02*
X62123571Y-106047380D01*
X62028333Y-106190238D01*
X61933095Y-106285476D01*
X61837857Y-106333095D01*
%TO.C,JP2*%
X112182380Y-125874999D02*
X112896666Y-125874999D01*
X113039523Y-125922618D01*
X113134761Y-126017856D01*
X113182380Y-126160713D01*
X113182380Y-126255951D01*
X113182380Y-125398808D02*
X112182380Y-125398808D01*
X112182380Y-125017856D01*
X112230000Y-124922618D01*
X112277619Y-124874999D01*
X112372857Y-124827380D01*
X112515714Y-124827380D01*
X112610952Y-124874999D01*
X112658571Y-124922618D01*
X112706190Y-125017856D01*
X112706190Y-125398808D01*
X112277619Y-124446427D02*
X112230000Y-124398808D01*
X112182380Y-124303570D01*
X112182380Y-124065475D01*
X112230000Y-123970237D01*
X112277619Y-123922618D01*
X112372857Y-123874999D01*
X112468095Y-123874999D01*
X112610952Y-123922618D01*
X113182380Y-124494046D01*
X113182380Y-123874999D01*
%TO.C,JP1*%
X112182380Y-121008333D02*
X112896666Y-121008333D01*
X113039523Y-121055952D01*
X113134761Y-121151190D01*
X113182380Y-121294047D01*
X113182380Y-121389285D01*
X113182380Y-120532142D02*
X112182380Y-120532142D01*
X112182380Y-120151190D01*
X112230000Y-120055952D01*
X112277619Y-120008333D01*
X112372857Y-119960714D01*
X112515714Y-119960714D01*
X112610952Y-120008333D01*
X112658571Y-120055952D01*
X112706190Y-120151190D01*
X112706190Y-120532142D01*
X113182380Y-119008333D02*
X113182380Y-119579761D01*
X113182380Y-119294047D02*
X112182380Y-119294047D01*
X112325238Y-119389285D01*
X112420476Y-119484523D01*
X112468095Y-119579761D01*
%TO.C,JP3*%
X112182380Y-130741665D02*
X112896666Y-130741665D01*
X113039523Y-130789284D01*
X113134761Y-130884522D01*
X113182380Y-131027379D01*
X113182380Y-131122617D01*
X113182380Y-130265474D02*
X112182380Y-130265474D01*
X112182380Y-129884522D01*
X112230000Y-129789284D01*
X112277619Y-129741665D01*
X112372857Y-129694046D01*
X112515714Y-129694046D01*
X112610952Y-129741665D01*
X112658571Y-129789284D01*
X112706190Y-129884522D01*
X112706190Y-130265474D01*
X112182380Y-129360712D02*
X112182380Y-128741665D01*
X112563333Y-129074998D01*
X112563333Y-128932141D01*
X112610952Y-128836903D01*
X112658571Y-128789284D01*
X112753809Y-128741665D01*
X112991904Y-128741665D01*
X113087142Y-128789284D01*
X113134761Y-128836903D01*
X113182380Y-128932141D01*
X113182380Y-129217855D01*
X113134761Y-129313093D01*
X113087142Y-129360712D01*
%TO.C,JP4*%
X112182380Y-135608333D02*
X112896666Y-135608333D01*
X113039523Y-135655952D01*
X113134761Y-135751190D01*
X113182380Y-135894047D01*
X113182380Y-135989285D01*
X113182380Y-135132142D02*
X112182380Y-135132142D01*
X112182380Y-134751190D01*
X112230000Y-134655952D01*
X112277619Y-134608333D01*
X112372857Y-134560714D01*
X112515714Y-134560714D01*
X112610952Y-134608333D01*
X112658571Y-134655952D01*
X112706190Y-134751190D01*
X112706190Y-135132142D01*
X112515714Y-133703571D02*
X113182380Y-133703571D01*
X112134761Y-133941666D02*
X112849047Y-134179761D01*
X112849047Y-133560714D01*
%TO.C,R5*%
X88433333Y-130772380D02*
X88100000Y-130296190D01*
X87861904Y-130772380D02*
X87861904Y-129772380D01*
X88242857Y-129772380D01*
X88338095Y-129820000D01*
X88385714Y-129867619D01*
X88433333Y-129962857D01*
X88433333Y-130105714D01*
X88385714Y-130200952D01*
X88338095Y-130248571D01*
X88242857Y-130296190D01*
X87861904Y-130296190D01*
X89338095Y-129772380D02*
X88861904Y-129772380D01*
X88814285Y-130248571D01*
X88861904Y-130200952D01*
X88957142Y-130153333D01*
X89195238Y-130153333D01*
X89290476Y-130200952D01*
X89338095Y-130248571D01*
X89385714Y-130343809D01*
X89385714Y-130581904D01*
X89338095Y-130677142D01*
X89290476Y-130724761D01*
X89195238Y-130772380D01*
X88957142Y-130772380D01*
X88861904Y-130724761D01*
X88814285Y-130677142D01*
%TO.C,R6*%
X88433333Y-136964046D02*
X88100000Y-136487856D01*
X87861904Y-136964046D02*
X87861904Y-135964046D01*
X88242857Y-135964046D01*
X88338095Y-136011666D01*
X88385714Y-136059285D01*
X88433333Y-136154523D01*
X88433333Y-136297380D01*
X88385714Y-136392618D01*
X88338095Y-136440237D01*
X88242857Y-136487856D01*
X87861904Y-136487856D01*
X89290476Y-135964046D02*
X89100000Y-135964046D01*
X89004761Y-136011666D01*
X88957142Y-136059285D01*
X88861904Y-136202142D01*
X88814285Y-136392618D01*
X88814285Y-136773570D01*
X88861904Y-136868808D01*
X88909523Y-136916427D01*
X89004761Y-136964046D01*
X89195238Y-136964046D01*
X89290476Y-136916427D01*
X89338095Y-136868808D01*
X89385714Y-136773570D01*
X89385714Y-136535475D01*
X89338095Y-136440237D01*
X89290476Y-136392618D01*
X89195238Y-136344999D01*
X89004761Y-136344999D01*
X88909523Y-136392618D01*
X88861904Y-136440237D01*
X88814285Y-136535475D01*
D12*
%TO.C,U1*%
X79600000Y-72500000D02*
X51000000Y-72500000D01*
X79600000Y-43900000D02*
X51000000Y-43900000D01*
X79600000Y-72500000D02*
X79600000Y-43900000D01*
X51000000Y-43900000D02*
X51000000Y-72500000D01*
%TO.C,RLY1*%
X116300000Y-87600000D02*
X82800000Y-87600000D01*
X82800000Y-114000000D02*
X116300000Y-114000000D01*
X116300000Y-114000000D02*
X116300000Y-87600000D01*
X82800000Y-87600000D02*
X82800000Y-114000000D01*
%TO.C,J2*%
X31775000Y-103775000D02*
X31775000Y-128075000D01*
X36925000Y-110845000D02*
X34025000Y-110845000D01*
X31775000Y-103775000D02*
X41775000Y-103775000D01*
X31775000Y-128075000D02*
X41775000Y-128075000D01*
X41775000Y-103775000D02*
X41775000Y-128075000D01*
%TO.C,R1*%
X66820000Y-103120000D02*
X66820000Y-99680000D01*
X67510000Y-101400000D02*
X66820000Y-101400000D01*
X66820000Y-99680000D02*
X57580000Y-99680000D01*
X57580000Y-99680000D02*
X57580000Y-103120000D01*
X56890000Y-101400000D02*
X57580000Y-101400000D01*
X57580000Y-103120000D02*
X66820000Y-103120000D01*
%TO.C,R4*%
X114030000Y-68020000D02*
X117470000Y-68020000D01*
X117470000Y-58780000D02*
X114030000Y-58780000D01*
X114030000Y-58780000D02*
X114030000Y-68020000D01*
X115750000Y-58090000D02*
X115750000Y-58780000D01*
X117470000Y-68020000D02*
X117470000Y-58780000D01*
X115750000Y-68710000D02*
X115750000Y-68020000D01*
%TO.C,J4*%
X56230000Y-97660000D02*
X54900000Y-97660000D01*
X53570000Y-95060000D02*
X53570000Y-92460000D01*
X56230000Y-96330000D02*
X56230000Y-97660000D01*
X56230000Y-92460000D02*
X53570000Y-92460000D01*
X56230000Y-95060000D02*
X56230000Y-92460000D01*
X56230000Y-95060000D02*
X53570000Y-95060000D01*
%TO.C,C2*%
X78395000Y-122195000D02*
X78395000Y-112955000D01*
X75655000Y-122195000D02*
X75655000Y-112955000D01*
X75655000Y-122195000D02*
X76360000Y-122195000D01*
X75655000Y-112955000D02*
X76360000Y-112955000D01*
X77690000Y-122195000D02*
X78395000Y-122195000D01*
X77690000Y-112955000D02*
X78395000Y-112955000D01*
%TO.C,R7*%
X83980000Y-141703332D02*
X93220000Y-141703332D01*
X93220000Y-141703332D02*
X93220000Y-138263332D01*
X93910000Y-139983332D02*
X93220000Y-139983332D01*
X83980000Y-138263332D02*
X83980000Y-141703332D01*
X83290000Y-139983332D02*
X83980000Y-139983332D01*
X93220000Y-138263332D02*
X83980000Y-138263332D01*
%TO.C,R9*%
X84305000Y-59055000D02*
X84305000Y-68295000D01*
X86025000Y-58365000D02*
X86025000Y-59055000D01*
X87745000Y-59055000D02*
X84305000Y-59055000D01*
X87745000Y-68295000D02*
X87745000Y-59055000D01*
X86025000Y-68985000D02*
X86025000Y-68295000D01*
X84305000Y-68295000D02*
X87745000Y-68295000D01*
%TO.C,R2*%
X112695000Y-63220000D02*
X112695000Y-53980000D01*
X110975000Y-53290000D02*
X110975000Y-53980000D01*
X109255000Y-53980000D02*
X109255000Y-63220000D01*
X112695000Y-53980000D02*
X109255000Y-53980000D01*
X109255000Y-63220000D02*
X112695000Y-63220000D01*
X110975000Y-63910000D02*
X110975000Y-63220000D01*
%TO.C,D1*%
X46590000Y-89745000D02*
X46590000Y-86655000D01*
X46590000Y-86655170D02*
G75*
G03*
X41040000Y-88200462I-2560000J-1544830D01*
G01*
X41040000Y-88199538D02*
G75*
G03*
X46590000Y-89744830I2990000J-462D01*
G01*
X46530000Y-88200000D02*
G75*
G03*
X46530000Y-88200000I-2500000J0D01*
G01*
%TO.C,R8*%
X93220000Y-144455000D02*
X83980000Y-144455000D01*
X93910000Y-146175000D02*
X93220000Y-146175000D01*
X83980000Y-147895000D02*
X93220000Y-147895000D01*
X83980000Y-144455000D02*
X83980000Y-147895000D01*
X83290000Y-146175000D02*
X83980000Y-146175000D01*
X93220000Y-147895000D02*
X93220000Y-144455000D01*
%TO.C,C1*%
X113323000Y-79120000D02*
X105227000Y-79120000D01*
X112555000Y-81041000D02*
X110315000Y-81041000D01*
X113343000Y-78920000D02*
X105207000Y-78920000D01*
X113332000Y-79040000D02*
X105218000Y-79040000D01*
X108235000Y-81321000D02*
X106220000Y-81321000D01*
X112719000Y-80801000D02*
X110315000Y-80801000D01*
X111729000Y-81881000D02*
X110315000Y-81881000D01*
X112016000Y-81641000D02*
X110315000Y-81641000D01*
X110043000Y-82641000D02*
X108507000Y-82641000D01*
X111377000Y-82121000D02*
X110315000Y-82121000D01*
X108235000Y-82041000D02*
X107047000Y-82041000D01*
X108235000Y-80241000D02*
X105535000Y-80241000D01*
X108235000Y-81041000D02*
X105995000Y-81041000D01*
X111503000Y-82041000D02*
X110315000Y-82041000D01*
X108235000Y-81761000D02*
X106671000Y-81761000D01*
X113336000Y-79000000D02*
X105214000Y-79000000D01*
X112768000Y-80721000D02*
X110315000Y-80721000D01*
X112792000Y-80681000D02*
X110315000Y-80681000D01*
X108235000Y-80841000D02*
X105857000Y-80841000D01*
X111006000Y-82321000D02*
X107544000Y-82321000D01*
X113292000Y-79321000D02*
X105258000Y-79321000D01*
X113138000Y-79921000D02*
X105412000Y-79921000D01*
X112859000Y-80561000D02*
X110315000Y-80561000D01*
X113242000Y-79561000D02*
X105308000Y-79561000D01*
X108235000Y-81961000D02*
X106930000Y-81961000D01*
X111879000Y-81761000D02*
X110315000Y-81761000D01*
X112961000Y-80361000D02*
X110315000Y-80361000D01*
X112495000Y-81121000D02*
X110315000Y-81121000D01*
X113065000Y-80121000D02*
X110315000Y-80121000D01*
X113327000Y-79080000D02*
X105223000Y-79080000D01*
X112365000Y-81281000D02*
X110315000Y-81281000D01*
X112837000Y-80601000D02*
X110315000Y-80601000D01*
X112399000Y-81241000D02*
X110315000Y-81241000D01*
X113352000Y-78760000D02*
X105198000Y-78760000D01*
X108235000Y-80081000D02*
X105470000Y-80081000D01*
X108235000Y-81081000D02*
X106025000Y-81081000D01*
X108235000Y-81641000D02*
X106534000Y-81641000D01*
X112584000Y-81001000D02*
X110315000Y-81001000D01*
X112922000Y-80441000D02*
X110315000Y-80441000D01*
X108235000Y-80721000D02*
X105782000Y-80721000D01*
X108235000Y-81601000D02*
X106491000Y-81601000D01*
X113222000Y-79641000D02*
X105328000Y-79641000D01*
X113346000Y-78880000D02*
X105204000Y-78880000D01*
X112182000Y-81481000D02*
X110315000Y-81481000D01*
X113152000Y-79881000D02*
X105398000Y-79881000D01*
X108235000Y-80801000D02*
X105831000Y-80801000D01*
X108235000Y-80201000D02*
X105518000Y-80201000D01*
X112258000Y-81401000D02*
X110315000Y-81401000D01*
X108235000Y-81161000D02*
X106086000Y-81161000D01*
X108235000Y-80761000D02*
X105806000Y-80761000D01*
X108235000Y-81401000D02*
X106292000Y-81401000D01*
X113211000Y-79681000D02*
X105339000Y-79681000D01*
X108235000Y-81361000D02*
X106256000Y-81361000D01*
X108235000Y-80641000D02*
X105735000Y-80641000D01*
X110504000Y-82521000D02*
X108046000Y-82521000D01*
X108235000Y-80161000D02*
X105501000Y-80161000D01*
X108235000Y-80361000D02*
X105589000Y-80361000D01*
X108235000Y-81441000D02*
X106330000Y-81441000D01*
X113277000Y-79401000D02*
X105273000Y-79401000D01*
X108235000Y-80401000D02*
X105609000Y-80401000D01*
X113015000Y-80241000D02*
X110315000Y-80241000D01*
X113032000Y-80201000D02*
X110315000Y-80201000D01*
X113200000Y-79721000D02*
X105350000Y-79721000D01*
X111780000Y-81841000D02*
X110315000Y-81841000D01*
X112294000Y-81361000D02*
X110315000Y-81361000D01*
X113269000Y-79441000D02*
X105281000Y-79441000D01*
X112059000Y-81601000D02*
X110315000Y-81601000D01*
X112525000Y-81081000D02*
X110315000Y-81081000D01*
X110621000Y-82481000D02*
X107929000Y-82481000D01*
X112330000Y-81321000D02*
X110315000Y-81321000D01*
X112881000Y-80521000D02*
X110315000Y-80521000D01*
X108235000Y-80121000D02*
X105485000Y-80121000D01*
X108235000Y-81681000D02*
X106578000Y-81681000D01*
X113177000Y-79801000D02*
X105373000Y-79801000D01*
X113285000Y-79361000D02*
X105265000Y-79361000D01*
X108235000Y-81561000D02*
X106449000Y-81561000D01*
X108235000Y-80521000D02*
X105669000Y-80521000D01*
X113125000Y-79961000D02*
X105425000Y-79961000D01*
X108235000Y-80601000D02*
X105713000Y-80601000D01*
X108235000Y-81881000D02*
X106821000Y-81881000D01*
X108235000Y-81281000D02*
X106185000Y-81281000D01*
X112997000Y-80281000D02*
X110315000Y-80281000D01*
X111990000Y-74590302D02*
X111190000Y-74590302D01*
X108235000Y-81481000D02*
X106368000Y-81481000D01*
X112941000Y-80401000D02*
X110315000Y-80401000D01*
X112902000Y-80481000D02*
X110315000Y-80481000D01*
X112815000Y-80641000D02*
X110315000Y-80641000D01*
X113312000Y-79200000D02*
X105238000Y-79200000D01*
X108235000Y-81521000D02*
X106408000Y-81521000D01*
X108235000Y-80441000D02*
X105628000Y-80441000D01*
X113164000Y-79841000D02*
X105386000Y-79841000D01*
X113354000Y-78720000D02*
X105196000Y-78720000D01*
X111590000Y-74190302D02*
X111590000Y-74990302D01*
X108235000Y-80481000D02*
X105648000Y-80481000D01*
X108235000Y-80561000D02*
X105691000Y-80561000D01*
X111831000Y-81801000D02*
X110315000Y-81801000D01*
X112464000Y-81161000D02*
X110315000Y-81161000D01*
X108235000Y-81801000D02*
X106719000Y-81801000D01*
X111926000Y-81721000D02*
X110315000Y-81721000D01*
X111675000Y-81921000D02*
X110315000Y-81921000D01*
X113355000Y-78680000D02*
X105195000Y-78680000D01*
X112431000Y-81201000D02*
X110315000Y-81201000D01*
X113355000Y-78640000D02*
X105195000Y-78640000D01*
X108235000Y-80921000D02*
X105910000Y-80921000D01*
X113110000Y-80001000D02*
X105440000Y-80001000D01*
X108235000Y-81201000D02*
X106119000Y-81201000D01*
X109808000Y-82681000D02*
X108742000Y-82681000D01*
X113305000Y-79240000D02*
X105245000Y-79240000D01*
X112667000Y-80881000D02*
X110315000Y-80881000D01*
X112979000Y-80321000D02*
X110315000Y-80321000D01*
X113340000Y-78960000D02*
X105210000Y-78960000D01*
X108235000Y-81721000D02*
X106624000Y-81721000D01*
X108235000Y-81121000D02*
X106055000Y-81121000D01*
X112744000Y-80761000D02*
X110315000Y-80761000D01*
X108235000Y-82001000D02*
X106988000Y-82001000D01*
X111165000Y-82241000D02*
X107385000Y-82241000D01*
X112101000Y-81561000D02*
X110315000Y-81561000D01*
X113049000Y-80161000D02*
X110315000Y-80161000D01*
X108235000Y-80321000D02*
X105571000Y-80321000D01*
X111620000Y-81961000D02*
X110315000Y-81961000D01*
X113349000Y-78840000D02*
X105201000Y-78840000D01*
X113299000Y-79280000D02*
X105251000Y-79280000D01*
X112220000Y-81441000D02*
X110315000Y-81441000D01*
X112640000Y-80921000D02*
X110315000Y-80921000D01*
X111562000Y-82001000D02*
X110315000Y-82001000D01*
X111088000Y-82281000D02*
X107462000Y-82281000D01*
X111441000Y-82081000D02*
X110315000Y-82081000D01*
X110827000Y-82401000D02*
X107723000Y-82401000D01*
X113317000Y-79160000D02*
X105233000Y-79160000D01*
X113189000Y-79761000D02*
X105361000Y-79761000D01*
X112693000Y-80841000D02*
X110315000Y-80841000D01*
X110920000Y-82361000D02*
X107630000Y-82361000D01*
X110728000Y-82441000D02*
X107822000Y-82441000D01*
X108235000Y-80281000D02*
X105553000Y-80281000D01*
X113260000Y-79481000D02*
X105290000Y-79481000D01*
X108235000Y-82081000D02*
X107109000Y-82081000D01*
X110223000Y-82601000D02*
X108327000Y-82601000D01*
X113355000Y-78600000D02*
X105195000Y-78600000D01*
X113351000Y-78800000D02*
X105199000Y-78800000D01*
X111309000Y-82161000D02*
X107241000Y-82161000D01*
X108235000Y-80961000D02*
X105937000Y-80961000D01*
X113096000Y-80041000D02*
X105454000Y-80041000D01*
X110373000Y-82561000D02*
X108177000Y-82561000D01*
X113232000Y-79601000D02*
X105318000Y-79601000D01*
X113080000Y-80081000D02*
X110315000Y-80081000D01*
X108235000Y-82121000D02*
X107173000Y-82121000D01*
X108235000Y-80681000D02*
X105758000Y-80681000D01*
X108235000Y-80881000D02*
X105883000Y-80881000D01*
X113251000Y-79521000D02*
X105299000Y-79521000D01*
X108235000Y-81921000D02*
X106875000Y-81921000D01*
X112142000Y-81521000D02*
X110315000Y-81521000D01*
X108235000Y-81841000D02*
X106770000Y-81841000D01*
X108235000Y-81001000D02*
X105966000Y-81001000D01*
X111239000Y-82201000D02*
X107311000Y-82201000D01*
X112613000Y-80961000D02*
X110315000Y-80961000D01*
X111972000Y-81681000D02*
X110315000Y-81681000D01*
X108235000Y-81241000D02*
X106151000Y-81241000D01*
X113395000Y-78600000D02*
G75*
G03*
X113395000Y-78600000I-4120000J0D01*
G01*
%TO.C,J8*%
X96670000Y-64675000D02*
X96670000Y-63345000D01*
X96670000Y-63345000D02*
X98000000Y-63345000D01*
X99330000Y-65945000D02*
X99330000Y-73625000D01*
X96670000Y-73625000D02*
X99330000Y-73625000D01*
X96670000Y-65945000D02*
X96670000Y-73625000D01*
X96670000Y-65945000D02*
X99330000Y-65945000D01*
%TO.C,J5*%
X87730000Y-116520000D02*
X87730000Y-119180000D01*
X91600000Y-116520000D02*
X92930000Y-116520000D01*
X90330000Y-119180000D02*
X87730000Y-119180000D01*
X92930000Y-116520000D02*
X92930000Y-117850000D01*
X90330000Y-116520000D02*
X90330000Y-119180000D01*
X90330000Y-116520000D02*
X87730000Y-116520000D01*
%TO.C,J6*%
X121231000Y-45725000D02*
X121324000Y-45819000D01*
X121025000Y-50930000D02*
X121084000Y-50989000D01*
X125861000Y-59560000D02*
X125861000Y-44440000D01*
X123276000Y-53180000D02*
X123369000Y-53274000D01*
X125200000Y-59560000D02*
X125200000Y-44440000D01*
X121025000Y-45930000D02*
X121084000Y-45989000D01*
X123276000Y-48180000D02*
X123369000Y-48274000D01*
X123516000Y-53010000D02*
X123574000Y-53069000D01*
X121231000Y-50725000D02*
X121324000Y-50819000D01*
X123516000Y-48010000D02*
X123574000Y-48069000D01*
X119900000Y-59560000D02*
X119900000Y-44440000D01*
X125260000Y-59800000D02*
X126100000Y-59800000D01*
X118140000Y-44440000D02*
X125861000Y-44440000D01*
X118140000Y-59560000D02*
X125861000Y-59560000D01*
X126100000Y-59800000D02*
X126100000Y-59200000D01*
X124600000Y-59560000D02*
X124600000Y-44440000D01*
X118140000Y-59560000D02*
X118140000Y-44440000D01*
X123784000Y-57789000D02*
G75*
G03*
X123980450Y-56970617I-1483995J788998D01*
G01*
X123980000Y-57000000D02*
G75*
G03*
X123783352Y-56211288I-1680000J0D01*
G01*
X123089000Y-55515999D02*
G75*
G03*
X121510911Y-55516047I-789000J-1484001D01*
G01*
X120816000Y-56211000D02*
G75*
G03*
X120816047Y-57789089I1483995J-789000D01*
G01*
X121511000Y-58484000D02*
G75*
G03*
X123089089Y-58483953I789000J1483995D01*
G01*
X123980000Y-52000000D02*
G75*
G03*
X123980000Y-52000000I-1680000J0D01*
G01*
X119850000Y-52000000D02*
G75*
G03*
X119850000Y-52000000I-550000J0D01*
G01*
X119850000Y-47000000D02*
G75*
G03*
X119850000Y-47000000I-550000J0D01*
G01*
X123980000Y-47000000D02*
G75*
G03*
X123980000Y-47000000I-1680000J0D01*
G01*
X119850000Y-57000000D02*
G75*
G03*
X119850000Y-57000000I-550000J0D01*
G01*
%TO.C,J1*%
X123516000Y-83010000D02*
X123574000Y-83069000D01*
X118140000Y-89560000D02*
X118140000Y-79440000D01*
X118140000Y-89560000D02*
X125861000Y-89560000D01*
X126100000Y-89800000D02*
X126100000Y-89200000D01*
X119900000Y-89560000D02*
X119900000Y-79440000D01*
X125260000Y-89800000D02*
X126100000Y-89800000D01*
X123276000Y-83180000D02*
X123369000Y-83274000D01*
X121231000Y-80725000D02*
X121324000Y-80819000D01*
X121025000Y-80930000D02*
X121084000Y-80989000D01*
X125200000Y-89560000D02*
X125200000Y-79440000D01*
X124600000Y-89560000D02*
X124600000Y-79440000D01*
X118140000Y-79440000D02*
X125861000Y-79440000D01*
X125861000Y-89560000D02*
X125861000Y-79440000D01*
X123089000Y-85515999D02*
G75*
G03*
X121510911Y-85516047I-789000J-1484001D01*
G01*
X120816000Y-86211000D02*
G75*
G03*
X120816047Y-87789089I1483995J-789000D01*
G01*
X123784000Y-87789000D02*
G75*
G03*
X123980450Y-86970617I-1483995J788998D01*
G01*
X121511000Y-88484000D02*
G75*
G03*
X123089089Y-88483953I789000J1483995D01*
G01*
X123980000Y-87000000D02*
G75*
G03*
X123783352Y-86211288I-1680000J0D01*
G01*
X123980000Y-82000000D02*
G75*
G03*
X123980000Y-82000000I-1680000J0D01*
G01*
X119850000Y-82000000D02*
G75*
G03*
X119850000Y-82000000I-550000J0D01*
G01*
X119850000Y-87000000D02*
G75*
G03*
X119850000Y-87000000I-550000J0D01*
G01*
%TO.C,J7*%
X125200000Y-77060000D02*
X125200000Y-61940000D01*
X123276000Y-65680000D02*
X123369000Y-65774000D01*
X119900000Y-77060000D02*
X119900000Y-61940000D01*
X121025000Y-63430000D02*
X121084000Y-63489000D01*
X123276000Y-70680000D02*
X123369000Y-70774000D01*
X121231000Y-68225000D02*
X121324000Y-68319000D01*
X126100000Y-77300000D02*
X126100000Y-76700000D01*
X118140000Y-77060000D02*
X125861000Y-77060000D01*
X124600000Y-77060000D02*
X124600000Y-61940000D01*
X118140000Y-61940000D02*
X125861000Y-61940000D01*
X123516000Y-70510000D02*
X123574000Y-70569000D01*
X125861000Y-77060000D02*
X125861000Y-61940000D01*
X123516000Y-65510000D02*
X123574000Y-65569000D01*
X121231000Y-63225000D02*
X121324000Y-63319000D01*
X118140000Y-77060000D02*
X118140000Y-61940000D01*
X121025000Y-68430000D02*
X121084000Y-68489000D01*
X125260000Y-77300000D02*
X126100000Y-77300000D01*
X120816000Y-73711000D02*
G75*
G03*
X120816047Y-75289089I1483995J-789000D01*
G01*
X123980000Y-74500000D02*
G75*
G03*
X123783352Y-73711288I-1680000J0D01*
G01*
X123089000Y-73015999D02*
G75*
G03*
X121510911Y-73016047I-789000J-1484001D01*
G01*
X123784000Y-75289000D02*
G75*
G03*
X123980450Y-74470617I-1483995J788998D01*
G01*
X121511000Y-75984000D02*
G75*
G03*
X123089089Y-75983953I789000J1483995D01*
G01*
X119850000Y-69500000D02*
G75*
G03*
X119850000Y-69500000I-550000J0D01*
G01*
X119850000Y-74500000D02*
G75*
G03*
X119850000Y-74500000I-550000J0D01*
G01*
X123980000Y-69500000D02*
G75*
G03*
X123980000Y-69500000I-1680000J0D01*
G01*
X119850000Y-64500000D02*
G75*
G03*
X119850000Y-64500000I-550000J0D01*
G01*
X123980000Y-64500000D02*
G75*
G03*
X123980000Y-64500000I-1680000J0D01*
G01*
%TO.C,J9*%
X123516000Y-145110000D02*
X123574000Y-145169000D01*
X121231000Y-127825000D02*
X121324000Y-127919000D01*
X121025000Y-143030000D02*
X121084000Y-143089000D01*
X123516000Y-125110000D02*
X123574000Y-125169000D01*
X123516000Y-135110000D02*
X123574000Y-135169000D01*
X121231000Y-122825000D02*
X121324000Y-122919000D01*
X123276000Y-120280000D02*
X123369000Y-120374000D01*
X125200000Y-151660000D02*
X125200000Y-111540000D01*
X125861000Y-151660000D02*
X125861000Y-111540000D01*
X121025000Y-128030000D02*
X121084000Y-128089000D01*
X125260000Y-151900000D02*
X126100000Y-151900000D01*
X121231000Y-142825000D02*
X121324000Y-142919000D01*
X121025000Y-138030000D02*
X121084000Y-138089000D01*
X123276000Y-125280000D02*
X123369000Y-125374000D01*
X123276000Y-145280000D02*
X123369000Y-145374000D01*
X121025000Y-113030000D02*
X121084000Y-113089000D01*
X121231000Y-132825000D02*
X121324000Y-132919000D01*
X123276000Y-140280000D02*
X123369000Y-140374000D01*
X119900000Y-151660000D02*
X119900000Y-111540000D01*
X123516000Y-140110000D02*
X123574000Y-140169000D01*
X124600000Y-151660000D02*
X124600000Y-111540000D01*
X121231000Y-117825000D02*
X121324000Y-117919000D01*
X121025000Y-133030000D02*
X121084000Y-133089000D01*
X123276000Y-115280000D02*
X123369000Y-115374000D01*
X121231000Y-112825000D02*
X121324000Y-112919000D01*
X123276000Y-135280000D02*
X123369000Y-135374000D01*
X121231000Y-137825000D02*
X121324000Y-137919000D01*
X126100000Y-151900000D02*
X126100000Y-151300000D01*
X118140000Y-151660000D02*
X125861000Y-151660000D01*
X118140000Y-151660000D02*
X118140000Y-111540000D01*
X118140000Y-111540000D02*
X125861000Y-111540000D01*
X123276000Y-130280000D02*
X123369000Y-130374000D01*
X123516000Y-115110000D02*
X123574000Y-115169000D01*
X121025000Y-123030000D02*
X121084000Y-123089000D01*
X123516000Y-130110000D02*
X123574000Y-130169000D01*
X121025000Y-118030000D02*
X121084000Y-118089000D01*
X123516000Y-120110000D02*
X123574000Y-120169000D01*
X123089000Y-147615999D02*
G75*
G03*
X121510911Y-147616047I-789000J-1484001D01*
G01*
X123784000Y-149889000D02*
G75*
G03*
X123980450Y-149070617I-1483995J788998D01*
G01*
X120816000Y-148311000D02*
G75*
G03*
X120816047Y-149889089I1483995J-789000D01*
G01*
X123980000Y-149100000D02*
G75*
G03*
X123783352Y-148311288I-1680000J0D01*
G01*
X121511000Y-150584000D02*
G75*
G03*
X123089089Y-150583953I789000J1483995D01*
G01*
X123980000Y-129100000D02*
G75*
G03*
X123980000Y-129100000I-1680000J0D01*
G01*
X123980000Y-144100000D02*
G75*
G03*
X123980000Y-144100000I-1680000J0D01*
G01*
X123980000Y-114100000D02*
G75*
G03*
X123980000Y-114100000I-1680000J0D01*
G01*
X119850000Y-144100000D02*
G75*
G03*
X119850000Y-144100000I-550000J0D01*
G01*
X119850000Y-114100000D02*
G75*
G03*
X119850000Y-114100000I-550000J0D01*
G01*
X123980000Y-134100000D02*
G75*
G03*
X123980000Y-134100000I-1680000J0D01*
G01*
X119850000Y-129100000D02*
G75*
G03*
X119850000Y-129100000I-550000J0D01*
G01*
X123980000Y-139100000D02*
G75*
G03*
X123980000Y-139100000I-1680000J0D01*
G01*
X123980000Y-119100000D02*
G75*
G03*
X123980000Y-119100000I-1680000J0D01*
G01*
X119850000Y-124100000D02*
G75*
G03*
X119850000Y-124100000I-550000J0D01*
G01*
X123980000Y-124100000D02*
G75*
G03*
X123980000Y-124100000I-1680000J0D01*
G01*
X119850000Y-149100000D02*
G75*
G03*
X119850000Y-149100000I-550000J0D01*
G01*
X119850000Y-119100000D02*
G75*
G03*
X119850000Y-119100000I-550000J0D01*
G01*
X119850000Y-139100000D02*
G75*
G03*
X119850000Y-139100000I-550000J0D01*
G01*
X119850000Y-134100000D02*
G75*
G03*
X119850000Y-134100000I-550000J0D01*
G01*
%TO.C,R3*%
X44730000Y-97955000D02*
X44730000Y-107195000D01*
X48170000Y-97955000D02*
X44730000Y-97955000D01*
X46450000Y-97265000D02*
X46450000Y-97955000D01*
X48170000Y-107195000D02*
X48170000Y-97955000D01*
X44730000Y-107195000D02*
X48170000Y-107195000D01*
X46450000Y-107885000D02*
X46450000Y-107195000D01*
%TO.C,J3*%
X73070000Y-96310000D02*
X73070000Y-91170000D01*
X75730000Y-97580000D02*
X75730000Y-98910000D01*
X75730000Y-98910000D02*
X74400000Y-98910000D01*
X75730000Y-91170000D02*
X73070000Y-91170000D01*
X75730000Y-96310000D02*
X75730000Y-91170000D01*
X75730000Y-96310000D02*
X73070000Y-96310000D01*
%TO.C,R10*%
X85280000Y-82520000D02*
X94520000Y-82520000D01*
X94520000Y-79080000D02*
X85280000Y-79080000D01*
X85280000Y-79080000D02*
X85280000Y-82520000D01*
X84590000Y-80800000D02*
X85280000Y-80800000D01*
X95210000Y-80800000D02*
X94520000Y-80800000D01*
X94520000Y-82520000D02*
X94520000Y-79080000D01*
%TO.C,A1*%
X52675000Y-112945000D02*
X52675000Y-151175000D01*
X55345000Y-110405000D02*
X52675000Y-110405000D01*
X68045000Y-110405000D02*
X70715000Y-110405000D01*
X55345000Y-112945000D02*
X55345000Y-110405000D01*
X55345000Y-112945000D02*
X55345000Y-148505000D01*
X70715000Y-107735000D02*
X52675000Y-107735000D01*
X52675000Y-107735000D02*
X52675000Y-110405000D01*
X55345000Y-148505000D02*
X52675000Y-148505000D01*
X70715000Y-151175000D02*
X70715000Y-107735000D01*
X55345000Y-112945000D02*
X52675000Y-112945000D01*
X68045000Y-148505000D02*
X70715000Y-148505000D01*
X68045000Y-110405000D02*
X68045000Y-148505000D01*
X52675000Y-151175000D02*
X70715000Y-151175000D01*
%TO.C,JP2*%
X111730000Y-123711666D02*
X111730000Y-125041666D01*
X109130000Y-123711666D02*
X109130000Y-126371666D01*
X106530000Y-123711666D02*
X106530000Y-126371666D01*
X110400000Y-123711666D02*
X111730000Y-123711666D01*
X109130000Y-126371666D02*
X106530000Y-126371666D01*
X109130000Y-123711666D02*
X106530000Y-123711666D01*
%TO.C,JP1*%
X109130000Y-121505000D02*
X106530000Y-121505000D01*
X106530000Y-118845000D02*
X106530000Y-121505000D01*
X109130000Y-118845000D02*
X106530000Y-118845000D01*
X111730000Y-118845000D02*
X111730000Y-120175000D01*
X110400000Y-118845000D02*
X111730000Y-118845000D01*
X109130000Y-118845000D02*
X109130000Y-121505000D01*
%TO.C,JP3*%
X109130000Y-131238332D02*
X106530000Y-131238332D01*
X109130000Y-128578332D02*
X109130000Y-131238332D01*
X111730000Y-128578332D02*
X111730000Y-129908332D01*
X106530000Y-128578332D02*
X106530000Y-131238332D01*
X110400000Y-128578332D02*
X111730000Y-128578332D01*
X109130000Y-128578332D02*
X106530000Y-128578332D01*
%TO.C,JP4*%
X110400000Y-133445000D02*
X111730000Y-133445000D01*
X111730000Y-133445000D02*
X111730000Y-134775000D01*
X109130000Y-133445000D02*
X109130000Y-136105000D01*
X109130000Y-133445000D02*
X106530000Y-133445000D01*
X106530000Y-133445000D02*
X106530000Y-136105000D01*
X109130000Y-136105000D02*
X106530000Y-136105000D01*
%TO.C,R5*%
X93220000Y-129320000D02*
X93220000Y-125880000D01*
X93220000Y-125880000D02*
X83980000Y-125880000D01*
X83980000Y-125880000D02*
X83980000Y-129320000D01*
X83290000Y-127600000D02*
X83980000Y-127600000D01*
X93910000Y-127600000D02*
X93220000Y-127600000D01*
X83980000Y-129320000D02*
X93220000Y-129320000D01*
%TO.C,R6*%
X93220000Y-132071666D02*
X83980000Y-132071666D01*
X83980000Y-135511666D02*
X93220000Y-135511666D01*
X93220000Y-135511666D02*
X93220000Y-132071666D01*
X93910000Y-133791666D02*
X93220000Y-133791666D01*
X83290000Y-133791666D02*
X83980000Y-133791666D01*
X83980000Y-132071666D02*
X83980000Y-135511666D01*
%TD*%
M02*
