%TF.GenerationSoftware,KiCad,Pcbnew,(6.0.7)*%
%TF.CreationDate,2022-10-11T21:25:08+02:00*%
%TF.ProjectId,Taupunktlueftung,54617570-756e-46b7-946c-75656674756e,rev?*%
%TF.SameCoordinates,Original*%
%TF.FileFunction,Legend,Bot*%
%TF.FilePolarity,Positive*%
%FSLAX46Y46*%
G04 Gerber Fmt 4.6, Leading zero omitted, Abs format (unit mm)*
G04 Created by KiCad (PCBNEW (6.0.7)) date 2022-10-11 21:25:08*
%MOMM*%
%LPD*%
G01*
G04 APERTURE LIST*
%ADD10C,0.150000*%
%ADD11C,0.300000*%
G04 APERTURE END LIST*
D10*
X97425000Y-48100000D02*
X97425000Y-58100000D01*
X87425000Y-48100000D02*
X97425000Y-48100000D01*
D11*
X92178571Y-94285714D02*
X91464285Y-93785714D01*
X92178571Y-93428571D02*
X90678571Y-93428571D01*
X90678571Y-94000000D01*
X90750000Y-94142857D01*
X90821428Y-94214285D01*
X90964285Y-94285714D01*
X91178571Y-94285714D01*
X91321428Y-94214285D01*
X91392857Y-94142857D01*
X91464285Y-94000000D01*
X91464285Y-93428571D01*
X92107142Y-95500000D02*
X92178571Y-95357142D01*
X92178571Y-95071428D01*
X92107142Y-94928571D01*
X91964285Y-94857142D01*
X91392857Y-94857142D01*
X91250000Y-94928571D01*
X91178571Y-95071428D01*
X91178571Y-95357142D01*
X91250000Y-95500000D01*
X91392857Y-95571428D01*
X91535714Y-95571428D01*
X91678571Y-94857142D01*
X92178571Y-96428571D02*
X92107142Y-96285714D01*
X91964285Y-96214285D01*
X90678571Y-96214285D01*
X92178571Y-97642857D02*
X91392857Y-97642857D01*
X91250000Y-97571428D01*
X91178571Y-97428571D01*
X91178571Y-97142857D01*
X91250000Y-97000000D01*
X92107142Y-97642857D02*
X92178571Y-97500000D01*
X92178571Y-97142857D01*
X92107142Y-97000000D01*
X91964285Y-96928571D01*
X91821428Y-96928571D01*
X91678571Y-97000000D01*
X91607142Y-97142857D01*
X91607142Y-97500000D01*
X91535714Y-97642857D01*
X92178571Y-98357142D02*
X91178571Y-98357142D01*
X90678571Y-98357142D02*
X90750000Y-98285714D01*
X90821428Y-98357142D01*
X90750000Y-98428571D01*
X90678571Y-98357142D01*
X90821428Y-98357142D01*
X92107142Y-99000000D02*
X92178571Y-99142857D01*
X92178571Y-99428571D01*
X92107142Y-99571428D01*
X91964285Y-99642857D01*
X91892857Y-99642857D01*
X91750000Y-99571428D01*
X91678571Y-99428571D01*
X91678571Y-99214285D01*
X91607142Y-99071428D01*
X91464285Y-99000000D01*
X91392857Y-99000000D01*
X91250000Y-99071428D01*
X91178571Y-99214285D01*
X91178571Y-99428571D01*
X91250000Y-99571428D01*
X55057142Y-47278571D02*
X55557142Y-46564285D01*
X55914285Y-47278571D02*
X55914285Y-45778571D01*
X55342857Y-45778571D01*
X55200000Y-45850000D01*
X55128571Y-45921428D01*
X55057142Y-46064285D01*
X55057142Y-46278571D01*
X55128571Y-46421428D01*
X55200000Y-46492857D01*
X55342857Y-46564285D01*
X55914285Y-46564285D01*
X54628571Y-45778571D02*
X53771428Y-45778571D01*
X54200000Y-47278571D02*
X54200000Y-45778571D01*
X52414285Y-47135714D02*
X52485714Y-47207142D01*
X52700000Y-47278571D01*
X52842857Y-47278571D01*
X53057142Y-47207142D01*
X53200000Y-47064285D01*
X53271428Y-46921428D01*
X53342857Y-46635714D01*
X53342857Y-46421428D01*
X53271428Y-46135714D01*
X53200000Y-45992857D01*
X53057142Y-45850000D01*
X52842857Y-45778571D01*
X52700000Y-45778571D01*
X52485714Y-45850000D01*
X52414285Y-45921428D01*
D10*
X104676190Y-150677380D02*
X104104761Y-150677380D01*
X104390476Y-151677380D02*
X104390476Y-150677380D01*
X103342857Y-151677380D02*
X103342857Y-151153571D01*
X103390476Y-151058333D01*
X103485714Y-151010714D01*
X103676190Y-151010714D01*
X103771428Y-151058333D01*
X103342857Y-151629761D02*
X103438095Y-151677380D01*
X103676190Y-151677380D01*
X103771428Y-151629761D01*
X103819047Y-151534523D01*
X103819047Y-151439285D01*
X103771428Y-151344047D01*
X103676190Y-151296428D01*
X103438095Y-151296428D01*
X103342857Y-151248809D01*
X102438095Y-151010714D02*
X102438095Y-151677380D01*
X102866666Y-151010714D02*
X102866666Y-151534523D01*
X102819047Y-151629761D01*
X102723809Y-151677380D01*
X102580952Y-151677380D01*
X102485714Y-151629761D01*
X102438095Y-151582142D01*
X101961904Y-151010714D02*
X101961904Y-152010714D01*
X101961904Y-151058333D02*
X101866666Y-151010714D01*
X101676190Y-151010714D01*
X101580952Y-151058333D01*
X101533333Y-151105952D01*
X101485714Y-151201190D01*
X101485714Y-151486904D01*
X101533333Y-151582142D01*
X101580952Y-151629761D01*
X101676190Y-151677380D01*
X101866666Y-151677380D01*
X101961904Y-151629761D01*
X100628571Y-151010714D02*
X100628571Y-151677380D01*
X101057142Y-151010714D02*
X101057142Y-151534523D01*
X101009523Y-151629761D01*
X100914285Y-151677380D01*
X100771428Y-151677380D01*
X100676190Y-151629761D01*
X100628571Y-151582142D01*
X100152380Y-151010714D02*
X100152380Y-151677380D01*
X100152380Y-151105952D02*
X100104761Y-151058333D01*
X100009523Y-151010714D01*
X99866666Y-151010714D01*
X99771428Y-151058333D01*
X99723809Y-151153571D01*
X99723809Y-151677380D01*
X99247619Y-151677380D02*
X99247619Y-150677380D01*
X99152380Y-151296428D02*
X98866666Y-151677380D01*
X98866666Y-151010714D02*
X99247619Y-151391666D01*
X98438095Y-151296428D02*
X97676190Y-151296428D01*
X96723809Y-151677380D02*
X97200000Y-151677380D01*
X97200000Y-150677380D01*
X95961904Y-151010714D02*
X95961904Y-151677380D01*
X96390476Y-151010714D02*
X96390476Y-151534523D01*
X96342857Y-151629761D01*
X96247619Y-151677380D01*
X96104761Y-151677380D01*
X96009523Y-151629761D01*
X95961904Y-151582142D01*
X96342857Y-150677380D02*
X96295238Y-150725000D01*
X96342857Y-150772619D01*
X96390476Y-150725000D01*
X96342857Y-150677380D01*
X96342857Y-150772619D01*
X95961904Y-150677380D02*
X95914285Y-150725000D01*
X95961904Y-150772619D01*
X96009523Y-150725000D01*
X95961904Y-150677380D01*
X95961904Y-150772619D01*
X95628571Y-151010714D02*
X95247619Y-151010714D01*
X95485714Y-151677380D02*
X95485714Y-150820238D01*
X95438095Y-150725000D01*
X95342857Y-150677380D01*
X95247619Y-150677380D01*
X95057142Y-151010714D02*
X94676190Y-151010714D01*
X94914285Y-150677380D02*
X94914285Y-151534523D01*
X94866666Y-151629761D01*
X94771428Y-151677380D01*
X94676190Y-151677380D01*
X93961904Y-151629761D02*
X94057142Y-151677380D01*
X94247619Y-151677380D01*
X94342857Y-151629761D01*
X94390476Y-151534523D01*
X94390476Y-151153571D01*
X94342857Y-151058333D01*
X94247619Y-151010714D01*
X94057142Y-151010714D01*
X93961904Y-151058333D01*
X93914285Y-151153571D01*
X93914285Y-151248809D01*
X94390476Y-151344047D01*
X93485714Y-151677380D02*
X93485714Y-151010714D01*
X93485714Y-151201190D02*
X93438095Y-151105952D01*
X93390476Y-151058333D01*
X93295238Y-151010714D01*
X93200000Y-151010714D01*
X92914285Y-151629761D02*
X92819047Y-151677380D01*
X92628571Y-151677380D01*
X92533333Y-151629761D01*
X92485714Y-151534523D01*
X92485714Y-151486904D01*
X92533333Y-151391666D01*
X92628571Y-151344047D01*
X92771428Y-151344047D01*
X92866666Y-151296428D01*
X92914285Y-151201190D01*
X92914285Y-151153571D01*
X92866666Y-151058333D01*
X92771428Y-151010714D01*
X92628571Y-151010714D01*
X92533333Y-151058333D01*
X92200000Y-151010714D02*
X91819047Y-151010714D01*
X92057142Y-150677380D02*
X92057142Y-151534523D01*
X92009523Y-151629761D01*
X91914285Y-151677380D01*
X91819047Y-151677380D01*
X91104761Y-151629761D02*
X91200000Y-151677380D01*
X91390476Y-151677380D01*
X91485714Y-151629761D01*
X91533333Y-151534523D01*
X91533333Y-151153571D01*
X91485714Y-151058333D01*
X91390476Y-151010714D01*
X91200000Y-151010714D01*
X91104761Y-151058333D01*
X91057142Y-151153571D01*
X91057142Y-151248809D01*
X91533333Y-151344047D01*
X90200000Y-151010714D02*
X90200000Y-151677380D01*
X90628571Y-151010714D02*
X90628571Y-151534523D01*
X90580952Y-151629761D01*
X90485714Y-151677380D01*
X90342857Y-151677380D01*
X90247619Y-151629761D01*
X90200000Y-151582142D01*
X89342857Y-151629761D02*
X89438095Y-151677380D01*
X89628571Y-151677380D01*
X89723809Y-151629761D01*
X89771428Y-151534523D01*
X89771428Y-151153571D01*
X89723809Y-151058333D01*
X89628571Y-151010714D01*
X89438095Y-151010714D01*
X89342857Y-151058333D01*
X89295238Y-151153571D01*
X89295238Y-151248809D01*
X89771428Y-151344047D01*
X88866666Y-151677380D02*
X88866666Y-151010714D01*
X88866666Y-151201190D02*
X88819047Y-151105952D01*
X88771428Y-151058333D01*
X88676190Y-151010714D01*
X88580952Y-151010714D01*
X87819047Y-151010714D02*
X87819047Y-151677380D01*
X88247619Y-151010714D02*
X88247619Y-151534523D01*
X88200000Y-151629761D01*
X88104761Y-151677380D01*
X87961904Y-151677380D01*
X87866666Y-151629761D01*
X87819047Y-151582142D01*
X87342857Y-151010714D02*
X87342857Y-151677380D01*
X87342857Y-151105952D02*
X87295238Y-151058333D01*
X87200000Y-151010714D01*
X87057142Y-151010714D01*
X86961904Y-151058333D01*
X86914285Y-151153571D01*
X86914285Y-151677380D01*
X86009523Y-151010714D02*
X86009523Y-151820238D01*
X86057142Y-151915476D01*
X86104761Y-151963095D01*
X86200000Y-152010714D01*
X86342857Y-152010714D01*
X86438095Y-151963095D01*
X86009523Y-151629761D02*
X86104761Y-151677380D01*
X86295238Y-151677380D01*
X86390476Y-151629761D01*
X86438095Y-151582142D01*
X86485714Y-151486904D01*
X86485714Y-151201190D01*
X86438095Y-151105952D01*
X86390476Y-151058333D01*
X86295238Y-151010714D01*
X86104761Y-151010714D01*
X86009523Y-151058333D01*
X84819047Y-150772619D02*
X84771428Y-150725000D01*
X84676190Y-150677380D01*
X84438095Y-150677380D01*
X84342857Y-150725000D01*
X84295238Y-150772619D01*
X84247619Y-150867857D01*
X84247619Y-150963095D01*
X84295238Y-151105952D01*
X84866666Y-151677380D01*
X84247619Y-151677380D01*
X83628571Y-150677380D02*
X83533333Y-150677380D01*
X83438095Y-150725000D01*
X83390476Y-150772619D01*
X83342857Y-150867857D01*
X83295238Y-151058333D01*
X83295238Y-151296428D01*
X83342857Y-151486904D01*
X83390476Y-151582142D01*
X83438095Y-151629761D01*
X83533333Y-151677380D01*
X83628571Y-151677380D01*
X83723809Y-151629761D01*
X83771428Y-151582142D01*
X83819047Y-151486904D01*
X83866666Y-151296428D01*
X83866666Y-151058333D01*
X83819047Y-150867857D01*
X83771428Y-150772619D01*
X83723809Y-150725000D01*
X83628571Y-150677380D01*
X82914285Y-150772619D02*
X82866666Y-150725000D01*
X82771428Y-150677380D01*
X82533333Y-150677380D01*
X82438095Y-150725000D01*
X82390476Y-150772619D01*
X82342857Y-150867857D01*
X82342857Y-150963095D01*
X82390476Y-151105952D01*
X82961904Y-151677380D01*
X82342857Y-151677380D01*
X81961904Y-150772619D02*
X81914285Y-150725000D01*
X81819047Y-150677380D01*
X81580952Y-150677380D01*
X81485714Y-150725000D01*
X81438095Y-150772619D01*
X81390476Y-150867857D01*
X81390476Y-150963095D01*
X81438095Y-151105952D01*
X82009523Y-151677380D01*
X81390476Y-151677380D01*
X80342857Y-150677380D02*
X80009523Y-151677380D01*
X79676190Y-150677380D01*
X78819047Y-151677380D02*
X79390476Y-151677380D01*
X79104761Y-151677380D02*
X79104761Y-150677380D01*
X79200000Y-150820238D01*
X79295238Y-150915476D01*
X79390476Y-150963095D01*
D11*
X39778571Y-122807142D02*
X41278571Y-122807142D01*
X40564285Y-123521428D02*
X40707142Y-123592857D01*
X40778571Y-123735714D01*
X40564285Y-122807142D02*
X40707142Y-122878571D01*
X40778571Y-123021428D01*
X40778571Y-123307142D01*
X40707142Y-123450000D01*
X40564285Y-123521428D01*
X39778571Y-123521428D01*
X40707142Y-124307142D02*
X40778571Y-124521428D01*
X40778571Y-124878571D01*
X40707142Y-125021428D01*
X40635714Y-125092857D01*
X40492857Y-125164285D01*
X40350000Y-125164285D01*
X40207142Y-125092857D01*
X40135714Y-125021428D01*
X40064285Y-124878571D01*
X39992857Y-124592857D01*
X39921428Y-124450000D01*
X39850000Y-124378571D01*
X39707142Y-124307142D01*
X39564285Y-124307142D01*
X39421428Y-124378571D01*
X39350000Y-124450000D01*
X39278571Y-124592857D01*
X39278571Y-124950000D01*
X39350000Y-125164285D01*
X40778571Y-125807142D02*
X39278571Y-125807142D01*
X39278571Y-126164285D01*
X39350000Y-126378571D01*
X39492857Y-126521428D01*
X39635714Y-126592857D01*
X39921428Y-126664285D01*
X40135714Y-126664285D01*
X40421428Y-126592857D01*
X40564285Y-126521428D01*
X40707142Y-126378571D01*
X40778571Y-126164285D01*
X40778571Y-125807142D01*
X127707142Y-80400000D02*
X127707142Y-81542857D01*
X128278571Y-80971428D02*
X127135714Y-80971428D01*
X126778571Y-84114285D02*
X126778571Y-83400000D01*
X127492857Y-83328571D01*
X127421428Y-83400000D01*
X127350000Y-83542857D01*
X127350000Y-83900000D01*
X127421428Y-84042857D01*
X127492857Y-84114285D01*
X127635714Y-84185714D01*
X127992857Y-84185714D01*
X128135714Y-84114285D01*
X128207142Y-84042857D01*
X128278571Y-83900000D01*
X128278571Y-83542857D01*
X128207142Y-83400000D01*
X128135714Y-83328571D01*
X126778571Y-84614285D02*
X128278571Y-85114285D01*
X126778571Y-85614285D01*
X127707142Y-87257142D02*
X127707142Y-88400000D01*
D10*
X95698809Y-50327380D02*
X96270238Y-50327380D01*
X95984523Y-50327380D02*
X95984523Y-49327380D01*
X96079761Y-49470238D01*
X96175000Y-49565476D01*
X96270238Y-49613095D01*
X95079761Y-49327380D02*
X94984523Y-49327380D01*
X94889285Y-49375000D01*
X94841666Y-49422619D01*
X94794047Y-49517857D01*
X94746428Y-49708333D01*
X94746428Y-49946428D01*
X94794047Y-50136904D01*
X94841666Y-50232142D01*
X94889285Y-50279761D01*
X94984523Y-50327380D01*
X95079761Y-50327380D01*
X95175000Y-50279761D01*
X95222619Y-50232142D01*
X95270238Y-50136904D01*
X95317857Y-49946428D01*
X95317857Y-49708333D01*
X95270238Y-49517857D01*
X95222619Y-49422619D01*
X95175000Y-49375000D01*
X95079761Y-49327380D01*
X94317857Y-50327380D02*
X94317857Y-49660714D01*
X94317857Y-49755952D02*
X94270238Y-49708333D01*
X94175000Y-49660714D01*
X94032142Y-49660714D01*
X93936904Y-49708333D01*
X93889285Y-49803571D01*
X93889285Y-50327380D01*
X93889285Y-49803571D02*
X93841666Y-49708333D01*
X93746428Y-49660714D01*
X93603571Y-49660714D01*
X93508333Y-49708333D01*
X93460714Y-49803571D01*
X93460714Y-50327380D01*
X92984523Y-50327380D02*
X92984523Y-49660714D01*
X92984523Y-49755952D02*
X92936904Y-49708333D01*
X92841666Y-49660714D01*
X92698809Y-49660714D01*
X92603571Y-49708333D01*
X92555952Y-49803571D01*
X92555952Y-50327380D01*
X92555952Y-49803571D02*
X92508333Y-49708333D01*
X92413095Y-49660714D01*
X92270238Y-49660714D01*
X92175000Y-49708333D01*
X92127380Y-49803571D01*
X92127380Y-50327380D01*
M02*
