M48
; DRILL file {KiCad (6.0.7)} date Tue Oct 11 21:25:05 2022
; FORMAT={-:-/ absolute / metric / decimal}
; #@! TF.CreationDate,2022-10-11T21:25:05+02:00
; #@! TF.GenerationSoftware,Kicad,Pcbnew,(6.0.7)
; #@! TF.FileFunction,Plated,1,2,PTH
FMAT,2
METRIC
; #@! TA.AperFunction,Plated,PTH,ComponentDrill
T1C0.800
; #@! TA.AperFunction,Plated,PTH,ComponentDrill
T2C0.900
; #@! TA.AperFunction,Plated,PTH,ComponentDrill
T3C1.000
; #@! TA.AperFunction,Plated,PTH,ComponentDrill
T4C1.200
; #@! TA.AperFunction,Plated,PTH,ComponentDrill
T5C1.300
%
G90
G05
T1
X35.475Y-109.575
X35.475Y-112.115
X35.475Y-114.655
X35.475Y-117.195
X35.475Y-119.735
X35.475Y-122.275
X46.45Y-96.225
X46.45Y-108.925
X55.85Y-101.4
X56.03Y-70.9
X58.57Y-70.9
X61.11Y-46.0
X61.11Y-70.9
X63.65Y-46.0
X63.65Y-70.9
X66.19Y-46.0
X66.19Y-70.9
X68.55Y-101.4
X68.73Y-46.0
X68.73Y-70.9
X71.27Y-46.0
X71.27Y-70.9
X77.025Y-113.825
X77.025Y-121.325
X82.25Y-127.6
X82.25Y-133.792
X82.25Y-139.983
X82.25Y-146.175
X83.55Y-80.8
X85.3Y-102.6
X85.3Y-105.14
X85.3Y-107.68
X86.025Y-57.325
X86.025Y-70.025
X94.95Y-127.6
X94.95Y-133.792
X94.95Y-139.983
X94.95Y-146.175
X96.25Y-80.8
X109.275Y-76.1
X109.275Y-81.1
X110.975Y-52.25
X110.975Y-64.95
X115.75Y-57.05
X115.75Y-69.75
T2
X42.76Y-88.2
X45.3Y-88.2
T3
X54.075Y-111.675
X54.075Y-114.215
X54.075Y-116.755
X54.075Y-119.295
X54.075Y-121.835
X54.075Y-124.375
X54.075Y-126.915
X54.075Y-129.455
X54.075Y-131.995
X54.075Y-134.535
X54.075Y-137.075
X54.075Y-139.615
X54.075Y-142.155
X54.075Y-144.695
X54.075Y-147.235
X54.9Y-93.79
X54.9Y-96.33
X69.315Y-111.675
X69.315Y-114.215
X69.315Y-116.755
X69.315Y-119.295
X69.315Y-121.835
X69.315Y-124.375
X69.315Y-126.915
X69.315Y-129.455
X69.315Y-131.995
X69.315Y-134.535
X69.315Y-137.075
X69.315Y-139.615
X69.315Y-142.155
X69.315Y-144.695
X69.315Y-147.235
X74.4Y-92.5
X74.4Y-95.04
X74.4Y-97.58
X89.06Y-117.85
X91.6Y-117.85
X98.0Y-64.675
X98.0Y-67.215
X98.0Y-69.755
X98.0Y-72.295
X107.86Y-120.175
X107.86Y-125.042
X107.86Y-129.908
X107.86Y-134.775
X110.4Y-120.175
X110.4Y-125.042
X110.4Y-129.908
X110.4Y-134.775
T4
X110.3Y-95.6
X110.3Y-100.68
X110.3Y-105.76
T5
X122.3Y-47.0
X122.3Y-52.0
X122.3Y-57.0
X122.3Y-64.5
X122.3Y-69.5
X122.3Y-74.5
X122.3Y-82.0
X122.3Y-87.0
X122.3Y-114.1
X122.3Y-119.1
X122.3Y-124.1
X122.3Y-129.1
X122.3Y-134.1
X122.3Y-139.1
X122.3Y-144.1
X122.3Y-149.1
T0
M30
