%TF.GenerationSoftware,KiCad,Pcbnew,(6.0.7)*%
%TF.CreationDate,2022-10-11T21:25:08+02:00*%
%TF.ProjectId,Taupunktlueftung,54617570-756e-46b7-946c-75656674756e,rev?*%
%TF.SameCoordinates,Original*%
%TF.FileFunction,Soldermask,Top*%
%TF.FilePolarity,Negative*%
%FSLAX46Y46*%
G04 Gerber Fmt 4.6, Leading zero omitted, Abs format (unit mm)*
G04 Created by KiCad (PCBNEW (6.0.7)) date 2022-10-11 21:25:08*
%MOMM*%
%LPD*%
G01*
G04 APERTURE LIST*
%ADD10C,2.000000*%
%ADD11C,2.500000*%
%ADD12C,1.900000*%
%ADD13C,1.600000*%
%ADD14O,1.600000X1.600000*%
%ADD15R,1.700000X1.700000*%
%ADD16O,1.700000X1.700000*%
%ADD17R,1.800000X1.800000*%
%ADD18C,1.800000*%
%ADD19R,1.600000X1.600000*%
%ADD20R,2.500000X2.500000*%
G04 APERTURE END LIST*
D10*
%TO.C,U1*%
X71270000Y-46000000D03*
X68730000Y-46000000D03*
X66190000Y-46000000D03*
X63650000Y-46000000D03*
X61110000Y-46000000D03*
X56030000Y-70900000D03*
X58570000Y-70900000D03*
X61110000Y-70900000D03*
X63650000Y-70900000D03*
X66190000Y-70900000D03*
X68730000Y-70900000D03*
X71270000Y-70900000D03*
%TD*%
%TO.C,RLY1*%
X85300000Y-102600000D03*
X85300000Y-105140000D03*
X85300000Y-107680000D03*
D11*
X110300000Y-105760000D03*
X110300000Y-100680000D03*
X110300000Y-95600000D03*
%TD*%
D12*
%TO.C,J2*%
X35475000Y-109575000D03*
X35475000Y-112115000D03*
X35475000Y-114655000D03*
X35475000Y-117195000D03*
X35475000Y-119735000D03*
X35475000Y-122275000D03*
%TD*%
D13*
%TO.C,R1*%
X55850000Y-101400000D03*
D14*
X68550000Y-101400000D03*
%TD*%
D13*
%TO.C,R4*%
X115750000Y-57050000D03*
D14*
X115750000Y-69750000D03*
%TD*%
D15*
%TO.C,J4*%
X54900000Y-96330000D03*
D16*
X54900000Y-93790000D03*
%TD*%
D13*
%TO.C,C2*%
X77025000Y-121325000D03*
X77025000Y-113825000D03*
%TD*%
%TO.C,R7*%
X94950000Y-139983332D03*
D14*
X82250000Y-139983332D03*
%TD*%
%TO.C,R9*%
X86025000Y-70025000D03*
D13*
X86025000Y-57325000D03*
%TD*%
%TO.C,R2*%
X110975000Y-64950000D03*
D14*
X110975000Y-52250000D03*
%TD*%
D17*
%TO.C,D1*%
X45300000Y-88200000D03*
D18*
X42760000Y-88200000D03*
%TD*%
D13*
%TO.C,R8*%
X94950000Y-146175000D03*
D14*
X82250000Y-146175000D03*
%TD*%
D19*
%TO.C,C1*%
X109275000Y-76100000D03*
D13*
X109275000Y-81100000D03*
%TD*%
D15*
%TO.C,J8*%
X98000000Y-64675000D03*
D16*
X98000000Y-67215000D03*
X98000000Y-69755000D03*
X98000000Y-72295000D03*
%TD*%
D15*
%TO.C,J5*%
X91600000Y-117850000D03*
D16*
X89060000Y-117850000D03*
%TD*%
D20*
%TO.C,J6*%
X122300000Y-57000000D03*
D11*
X122300000Y-52000000D03*
X122300000Y-47000000D03*
%TD*%
D20*
%TO.C,J1*%
X122300000Y-87000000D03*
D11*
X122300000Y-82000000D03*
%TD*%
D20*
%TO.C,J7*%
X122300000Y-74500000D03*
D11*
X122300000Y-69500000D03*
X122300000Y-64500000D03*
%TD*%
D20*
%TO.C,J9*%
X122300000Y-149100000D03*
D11*
X122300000Y-144100000D03*
X122300000Y-139100000D03*
X122300000Y-134100000D03*
X122300000Y-129100000D03*
X122300000Y-124100000D03*
X122300000Y-119100000D03*
X122300000Y-114100000D03*
%TD*%
D13*
%TO.C,R3*%
X46450000Y-108925000D03*
D14*
X46450000Y-96225000D03*
%TD*%
D15*
%TO.C,J3*%
X74400000Y-97580000D03*
D16*
X74400000Y-95040000D03*
X74400000Y-92500000D03*
%TD*%
D13*
%TO.C,R10*%
X96250000Y-80800000D03*
D14*
X83550000Y-80800000D03*
%TD*%
D19*
%TO.C,A1*%
X54075000Y-111675000D03*
D14*
X54075000Y-114215000D03*
X54075000Y-116755000D03*
X54075000Y-119295000D03*
X54075000Y-121835000D03*
X54075000Y-124375000D03*
X54075000Y-126915000D03*
X54075000Y-129455000D03*
X54075000Y-131995000D03*
X54075000Y-134535000D03*
X54075000Y-137075000D03*
X54075000Y-139615000D03*
X54075000Y-142155000D03*
X54075000Y-144695000D03*
X54075000Y-147235000D03*
X69315000Y-147235000D03*
X69315000Y-144695000D03*
X69315000Y-142155000D03*
X69315000Y-139615000D03*
X69315000Y-137075000D03*
X69315000Y-134535000D03*
X69315000Y-131995000D03*
X69315000Y-129455000D03*
X69315000Y-126915000D03*
X69315000Y-124375000D03*
X69315000Y-121835000D03*
X69315000Y-119295000D03*
X69315000Y-116755000D03*
X69315000Y-114215000D03*
X69315000Y-111675000D03*
%TD*%
D15*
%TO.C,JP2*%
X110400000Y-125041666D03*
D16*
X107860000Y-125041666D03*
%TD*%
D15*
%TO.C,JP1*%
X110400000Y-120175000D03*
D16*
X107860000Y-120175000D03*
%TD*%
D15*
%TO.C,JP3*%
X110400000Y-129908332D03*
D16*
X107860000Y-129908332D03*
%TD*%
D15*
%TO.C,JP4*%
X110400000Y-134775000D03*
D16*
X107860000Y-134775000D03*
%TD*%
D13*
%TO.C,R5*%
X94950000Y-127600000D03*
D14*
X82250000Y-127600000D03*
%TD*%
D13*
%TO.C,R6*%
X94950000Y-133791666D03*
D14*
X82250000Y-133791666D03*
%TD*%
M02*
